HIERARCHY
ROOT Hips
{
  OFFSET 0 89.5177 0.535
  CHANNELS 6 Xposition Yposition Zposition Zrotation Xrotation Yrotation
  JOINT Spine
  {
    OFFSET 12.0259 -0.162855 1.69034e-005
    CHANNELS 3 Zrotation Xrotation Yrotation
    JOINT Spine1
    {
      OFFSET 15.3169 -0.0121922 0
      CHANNELS 3 Zrotation Xrotation Yrotation
      JOINT Spine2
      {
        OFFSET 15.3176 -0.0121908 0
        CHANNELS 3 Zrotation Xrotation Yrotation
        JOINT Neck
        {
          OFFSET 19.9142 1.56338 0
          CHANNELS 3 Zrotation Xrotation Yrotation
          JOINT Head
          {
            OFFSET 6.92651 0 0
            CHANNELS 3 Zrotation Xrotation Yrotation
            End Site
            {
              OFFSET 20.7666 0 0
            }
          }
          JOINT LeftShoulder
          {
            OFFSET -6.20654 0.708824 7.28219
            CHANNELS 3 Zrotation Xrotation Yrotation
            JOINT LeftArm
            {
              OFFSET 14.108 0 -1.52588e-005
              CHANNELS 3 Zrotation Xrotation Yrotation
              JOINT LeftForeArm
              {
                OFFSET 28.5802 0 0
                CHANNELS 3 Zrotation Xrotation Yrotation
                JOINT LeftHand
                {
                  OFFSET 27.092 0 0
                  CHANNELS 3 Zrotation Xrotation Yrotation
                  End Site
                  {
                    OFFSET 9.55928 -0.186424 0.145352
                  }
                }
              }
            }
          }
          JOINT RightShoulder
          {
            OFFSET -6.20654 0.708866 -7.28218
            CHANNELS 3 Zrotation Xrotation Yrotation
            JOINT RightArm
            {
              OFFSET 14.108 0 1.52588e-005
              CHANNELS 3 Zrotation Xrotation Yrotation
              JOINT RightForeArm
              {
                OFFSET 28.5802 0 0
                CHANNELS 3 Zrotation Xrotation Yrotation
                JOINT RightHand
                {
                  OFFSET 27.092 0 0
                  CHANNELS 3 Zrotation Xrotation Yrotation
                  End Site
                  {
                    OFFSET 9.55929 -0.186417 -0.145354
                  }
                }
              }
            }
          }
        }
      }
    }
  }
  JOINT LeftUpLeg
  {
    OFFSET 0.005 -0.535 8.837
    CHANNELS 3 Zrotation Xrotation Yrotation
    JOINT LeftLeg
    {
      OFFSET 39.9035 0 0
      CHANNELS 3 Zrotation Xrotation Yrotation
      JOINT LeftFoot
      {
        OFFSET 39.6689 0 0
        CHANNELS 3 Zrotation Xrotation Yrotation
        JOINT LeftToe
        {
          OFFSET 10.1624 13.6296 0
          CHANNELS 3 Zrotation Xrotation Yrotation
          End Site
          {
            OFFSET 8.38147 0 0
          }
        }
      }
    }
  }
  JOINT RightUpLeg
  {
    OFFSET 0.005 -0.535 -8.837
    CHANNELS 3 Zrotation Xrotation Yrotation
    JOINT RightLeg
    {
      OFFSET 39.9035 0 0
      CHANNELS 3 Zrotation Xrotation Yrotation
      JOINT RightFoot
      {
        OFFSET 39.6689 0 0
        CHANNELS 3 Zrotation Xrotation Yrotation
        JOINT RightToe
        {
          OFFSET 10.1624 13.6296 0
          CHANNELS 3 Zrotation Xrotation Yrotation
          End Site
          {
            OFFSET 8.38147 0 0
          }
        }
      }
    }
  }
}
MOTION
Frames:	15
Frame Time:	0.0333333
214.357 89.5069 -45.9792 -143.666 -85.6306 127.796 -0.679793 -1.4556 -0.718169 -1.37844 -2.90198 -1.45409 -1.37844 -2.90198 -1.4541 -8.30758e-012 -9.0191e-006 -5.27751e-005 10.165 1.22692 -1.15203 -178.387 -30.4484 -86.819 -24.5323 -50.0491 4.23895 -5.46242 -3.18055e-015 3.18055e-015 -29.5276 -52.3615 -32.76 -179.284 22.5359 88.1335 -30.6935 37.7285 1.78436 -2.30342 6.36111e-015 1.98785e-016 -62.9292 68.2962 65.9084 -3.49872 11.6195 -175.901 -7.31105 -3.18055e-015 -1.98785e-016 8.44136 6.51249 -9.76704 90 4.16205e-016 -3.97569e-016 -14.1708 -10.0603 175.437 -27.6726 -3.18056e-015 -1.59028e-015 31.2194 -21.8816 18.0116 90 1.59028e-015 -1.59028e-015 
214.35 89.5109 -45.9212 -143.341 -85.6809 128.135 -0.678472 -1.45902 -0.710473 -1.37565 -2.90893 -1.4387 -1.37565 -2.90893 -1.43871 -8.30748e-012 -9.0191e-006 -5.27751e-005 10.4586 1.3144 -1.33187 -178.424 -30.3218 -86.8807 -24.0239 -50.0134 4.79721 -5.60674 -6.36111e-015 -0 -29.4404 -52.4262 -32.6788 -179.273 22.4614 88.0971 -30.551 37.7146 1.54509 -2.33435 0 4.96962e-016 -62.874 68.3565 65.8489 -3.47587 11.6477 -175.916 -7.29444 0 2.5842e-015 8.41776 6.55167 -9.82596 90 -2.54693e-016 -0 -14.1595 -10.0478 175.422 -27.6777 1.59028e-015 7.95139e-016 31.1916 -21.8686 17.9767 90 0 -0 
214.348 89.5064 -45.8468 -143.378 -85.7021 128.127 -0.672148 -1.45899 -0.710918 -1.3631 -2.91373 -1.43946 -1.3631 -2.91373 -1.43947 -8.30748e-012 -9.0191e-006 -5.27751e-005 10.6408 1.41108 -1.43395 -178.425 -30.2694 -86.8783 -23.905 -49.9655 5.07305 -5.62892 0 -1.59028e-015 -29.4389 -52.4176 -32.676 -179.256 22.3818 88.0475 -30.3897 37.7705 1.29091 -2.37638 6.36111e-015 -1.98785e-016 -62.9534 68.316 65.9259 -3.51891 11.6488 -175.941 -7.3138 0 -5.96354e-016 8.39799 6.56062 -9.83907 90 -1.05604e-015 3.97569e-016 -14.2179 -10.0299 175.398 -27.7454 0 -1.59028e-015 31.2862 -21.8782 17.8986 90 -7.95139e-016 4.77083e-015 
214.353 89.5013 -45.7608 -143.105 -85.7365 128.415 -0.655031 -1.45883 -0.709949 -1.32906 -2.91777 -1.43939 -1.32906 -2.91777 -1.4394 -8.30768e-012 -9.0191e-006 -5.27751e-005 10.7049 1.51879 -1.54539 -178.428 -30.2092 -86.8777 -23.7044 -49.9852 5.37237 -5.72974 3.18055e-015 -1.59028e-015 -29.3565 -52.4468 -32.5942 -179.25 22.3149 88.0255 -30.2471 37.8946 1.03499 -2.44756 -1.27222e-014 -3.97569e-016 -62.9391 68.3349 65.9177 -3.5839 11.6226 -175.943 -7.4125 0 -1.78906e-015 8.41903 6.54664 -9.81764 90 8.75895e-016 7.95139e-016 -14.2894 -10.0604 175.381 -27.8459 1.59028e-015 1.59028e-015 31.3801 -21.9266 17.8838 90 3.18055e-015 1.59028e-015 
214.37 89.5016 -45.6675 -143.065 -85.7684 128.463 -0.630364 -1.45839 -0.707639 -1.27958 -2.90827 -1.43883 -1.27958 -2.90827 -1.43884 -8.30738e-012 -9.0191e-006 -5.27751e-005 10.6813 1.55947 -1.53792 -178.465 -30.1234 -86.9428 -23.533 -50.0059 5.68798 -5.80652 -3.18055e-015 -0 -29.4392 -52.4428 -32.6802 -179.22 22.2887 87.9438 -30.1929 37.9171 0.860184 -2.43886 3.18055e-015 -1.98785e-016 -62.96 68.3268 65.9415 -3.67474 11.5539 -175.94 -7.51352 1.59028e-015 3.97569e-016 8.39821 6.49671 -9.74156 90 -1.0871e-015 -0 -14.3389 -10.0324 175.384 -27.8825 0 7.95139e-016 31.3541 -21.9237 17.8406 90 2.38542e-015 -1.59028e-015 
214.389 89.5008 -45.5844 -143.48 -85.7685 128.05 -0.625326 -1.45555 -0.70488 -1.26929 -2.90272 -1.43039 -1.26929 -2.90272 -1.4304 -8.30758e-012 -9.0191e-006 -5.27751e-005 10.7463 1.57413 -1.56636 -178.445 -30.0678 -86.8978 -23.6062 -49.827 5.74115 -5.81859 6.36111e-015 -0 -29.4302 -52.4348 -32.6695 -179.212 22.2284 87.9172 -30.0699 37.853 0.668697 -2.4189 -6.36111e-015 6.4605e-016 -62.9361 68.3292 65.9199 -3.79293 11.5615 -175.904 -7.57876 0 3.97569e-016 8.38696 6.5308 -9.79251 90 6.08778e-016 3.97569e-016 -14.4188 -10.0423 175.408 -27.9126 -3.18056e-015 -1.59028e-015 31.3623 -21.9197 17.7694 90 -1.19271e-015 -0 
214.41 89.5 -45.4972 -143.753 -85.738 127.775 -0.623928 -1.44363 -0.702566 -1.26638 -2.87889 -1.42849 -1.26638 -2.87889 -1.4285 -8.30768e-012 -9.0191e-006 -5.27751e-005 10.8202 1.51321 -1.53607 -178.429 -30.0678 -86.8668 -23.7477 -49.9291 5.79076 -5.86735 -3.18055e-015 -1.59028e-015 -29.4932 -52.4163 -32.7325 -179.205 22.21 87.8984 -29.9661 37.8709 0.497137 -2.4483 3.18055e-015 -7.20594e-016 -62.8488 68.4185 65.8246 -3.90666 11.54 -175.892 -7.61123 1.59028e-015 -3.97569e-016 8.35608 6.51158 -9.76292 90 -3.72721e-016 -3.97569e-016 -14.5266 -10.0664 175.417 -27.9442 0 -1.59028e-015 31.3495 -21.9247 17.7317 90 7.95139e-016 -3.18055e-015 
214.435 89.4995 -45.4109 -143.933 -85.7238 127.586 -0.616211 -1.44036 -0.701596 -1.25061 -2.87251 -1.41914 -1.25061 -2.87251 -1.41915 -8.30728e-012 -9.0191e-006 -5.27751e-005 10.8454 1.4465 -1.53765 -178.399 -30.1275 -86.8131 -23.8932 -49.881 5.80029 -5.99657 -1.59028e-014 -1.59028e-015 -29.4043 -52.461 -32.6464 -179.186 22.1813 87.8438 -29.9864 37.9294 0.454687 -2.46205 0 -6.70898e-016 -62.9938 68.3301 65.9774 -4.02095 11.5039 -175.861 -7.6782 -1.59028e-015 7.95139e-016 8.35219 6.48556 -9.72317 90 2.85753e-016 -0 -14.6037 -10.0414 175.459 -27.9727 -4.77083e-015 -7.95139e-016 31.37 -21.9196 17.6774 90 1.59028e-015 4.77083e-015 
214.454 89.4991 -45.3317 -144.165 -85.7284 127.38 -0.603619 -1.43914 -0.706671 -1.22552 -2.87017 -1.42897 -1.22552 -2.87017 -1.42898 -8.30728e-012 -9.0191e-006 -5.27751e-005 10.8406 1.38548 -1.49546 -178.365 -30.1618 -86.7482 -24.0988 -49.824 5.70108 -6.04696 3.18055e-015 1.59028e-015 -29.4457 -52.4751 -32.6919 -179.15 22.1619 87.7472 -29.9785 37.6387 0.458835 -2.54614 -1.59028e-014 -1.36664e-016 -63.0103 68.3254 65.9957 -4.1243 11.5203 -175.855 -7.75235 -1.59028e-015 -9.93923e-016 8.35809 6.53044 -9.79055 90 -3.16813e-016 -7.95139e-016 -14.6701 -10.0385 175.447 -28.0027 4.77083e-015 -0 31.3567 -21.8989 17.5928 90 7.95139e-016 -0 
214.479 89.4988 -45.2582 -144.763 -85.731 126.821 -0.597125 -1.44595 -0.716821 -1.21287 -2.88376 -1.44919 -1.21287 -2.88376 -1.4492 -8.30778e-012 -9.0191e-006 -5.27751e-005 10.9035 1.33189 -1.43077 -178.394 -30.099 -86.7993 -24.0304 -49.7686 5.75192 -6.0789 -1.59028e-014 -0 -29.459 -52.44 -32.7004 -179.127 22.1669 87.6868 -30.0703 37.3878 0.432912 -2.51255 -3.18055e-015 2.04997e-016 -62.8789 68.3779 65.8672 -4.18701 11.4695 -175.882 -7.7251 0 1.19271e-015 8.264 6.50947 -9.75806 90 -4.72114e-016 3.97569e-016 -14.7542 -9.98605 175.434 -28.042 1.59028e-015 1.59028e-015 31.3948 -21.8798 17.493 90 1.98785e-015 3.18055e-015 
214.501 89.4985 -45.2001 -145.512 -85.7552 126.094 -0.590367 -1.46258 -0.723308 -1.19974 -2.91705 -1.46219 -1.19974 -2.91705 -1.4622 -8.30708e-012 -9.0191e-006 -5.27751e-005 11.1101 1.23971 -1.3732 -178.372 -30.0892 -86.7555 -24.1803 -49.7249 5.55743 -6.01845 3.18055e-015 4.77083e-015 -29.453 -52.41 -32.6894 -179.097 22.187 87.6092 -30.2511 36.9997 0.471826 -2.47316 -3.18055e-015 3.41661e-016 -62.8589 68.3432 65.8397 -4.22983 11.4632 -175.884 -7.69102 1.59028e-015 3.97569e-016 8.25792 6.55164 -9.82158 90 3.04389e-016 -3.97569e-016 -14.801 -10.0014 175.434 -28.0642 0 7.95139e-016 31.4219 -21.8485 17.3988 90 3.97569e-016 1.59028e-015 
214.528 89.4994 -45.1457 -146.244 -85.7929 125.38 -0.583787 -1.47816 -0.729155 -1.18693 -2.94822 -1.4739 -1.18693 -2.94822 -1.47391 -8.30728e-012 -9.0191e-006 -5.27751e-005 11.3537 1.117 -1.29962 -178.358 -30.078 -86.7258 -24.267 -49.7951 5.41318 -6.00206 -9.54166e-015 -3.18055e-015 -29.6175 -52.3768 -32.8566 -179.059 22.2227 87.5128 -30.4187 36.6581 0.525301 -2.44871 3.18055e-015 -1.01877e-015 -62.9471 68.3307 65.9275 -4.30513 11.4239 -175.879 -7.74749 -1.59028e-015 -0 8.24811 6.55865 -9.83143 90 4.96962e-017 7.95139e-016 -14.8048 -9.93201 175.465 -28.0437 -3.18056e-015 -2.38542e-015 31.4361 -21.7492 17.2044 90 -1.59028e-015 1.59028e-015 
214.545 89.4992 -45.1133 -146.425 -85.8287 125.225 -0.572881 -1.48755 -0.732663 -1.16533 -2.96711 -1.48074 -1.16533 -2.96711 -1.48075 -8.30728e-012 -9.0191e-006 -5.27751e-005 11.5689 1.10647 -1.29755 -178.369 -30.0477 -86.7443 -24.2177 -49.7617 5.39836 -5.97143 3.18055e-015 -0 -29.7723 -52.3304 -33.0117 -179.029 22.2356 87.4369 -30.4991 36.6055 0.546098 -2.4841 -3.18055e-015 2.48481e-016 -62.8515 68.3954 65.8267 -4.33432 11.3929 -175.889 -7.79955 -1.59028e-015 -0 8.24387 6.55832 -9.83076 90 -8.07563e-017 -0 -14.811 -9.90304 175.442 -28.0893 -1.59028e-015 -7.95139e-016 31.5102 -21.7704 17.2187 90 3.97569e-016 -0 
214.553 89.499 -45.0963 -146.154 -85.8711 125.517 -0.562636 -1.49162 -0.734092 -1.14492 -2.97536 -1.48338 -1.14492 -2.97536 -1.48339 -8.30748e-012 -9.0191e-006 -5.27751e-005 11.8159 1.22639 -1.24724 -178.379 -30.0163 -86.763 -24.1002 -49.7875 5.44771 -5.92661 0 -0 -29.8665 -52.3263 -33.1098 -179.011 22.2284 87.388 -30.547 36.5023 0.556557 -2.4648 1.90833e-014 2.48481e-016 -62.8813 68.3581 65.8606 -4.3013 11.4041 -175.905 -7.79688 0 -1.19271e-015 8.19651 6.57755 -9.85919 90 -7.14382e-016 -3.97569e-016 -14.795 -9.91571 175.418 -28.1272 1.59028e-015 -1.59028e-015 31.5814 -21.7843 17.2109 90 0 -0 
214.563 89.4992 -45.0801 -147.041 -85.9159 124.638 -0.561384 -1.5026 -0.734453 -1.1429 -2.9973 -1.49247 -1.1429 -2.9973 -1.49248 -8.30748e-012 -9.0191e-006 -5.27751e-005 12.088 1.32578 -1.1558 -178.384 -30.0257 -86.7731 -24.1689 -49.8802 5.42319 -5.82041 -6.36111e-015 -1.59028e-015 -29.7315 -52.3216 -32.9621 -179 22.2065 87.3565 -30.4053 36.4535 0.444208 -2.5226 0 -4.96962e-017 -62.8413 68.4103 65.8146 -4.30731 11.3684 -175.907 -7.76648 1.59028e-015 1.78906e-015 8.17233 6.61015 -9.90814 90 -1.22998e-015 -7.95139e-016 -14.7759 -9.91324 175.421 -28.0949 0 -7.95139e-016 31.5031 -21.7211 17.1168 90 0 -3.18055e-015 
